<!DOCTYPE svg PUBLIC "-//W3C//DTD SVG 20010904//EN" "http://www.w3.org/TR/2001/REC-SVG-20010904/DTD/svg10.dtd">
<svg version="1.0" xmlns="http://www.w3.org/2000/svg" width="512px" height="512px" viewBox="0 0 5120 5120" preserveAspectRatio="xMidYMid meet">
<g id="layer101" fill="#00832d" stroke="none">
<path d="M643 4749 c-43 -12 -91 -62 -98 -102 -3 -18 -4 -696 -3 -1507 l3 -1475 27 -50 c43 -81 106 -132 198 -159 44 -13 110 -16 372 -16 l318 0 0 -325 c0 -307 1 -327 22 -382 27 -74 97 -144 173 -172 55 -21 64 -21 1365 -21 l1309 0 58 22 c75 28 144 97 172 174 21 55 21 61 19 1112 l-3 1057 -23 43 c-35 66 -88 119 -150 149 l-57 28 -342 3 -342 3 -3 347 c-3 340 -3 348 -26 390 -35 66 -88 119 -150 149 l-57 28 -980 3 -980 2 -345 344 c-290 289 -351 346 -385 355 -46 12 -49 12 -92 0z"/>
</g>
<g id="layer102" fill="#00ac47" stroke="none">
<path d="M643 4749 c-43 -12 -91 -62 -98 -102 -3 -18 -4 -696 -3 -1507 l3 -1475 27 -50 c43 -81 106 -132 198 -159 44 -13 110 -16 367 -16 l312 0 3 723 3 722 27 57 c35 75 104 141 174 167 54 21 70 21 1030 21 l975 0 -3 348 c-3 340 -3 348 -26 390 -35 66 -88 119 -150 149 l-57 28 -980 3 -980 2 -345 344 c-290 289 -351 346 -385 355 -46 12 -49 12 -92 0z"/>
</g>
<g id="layer103" fill="#5bb974" stroke="none">
<path d="M3668 2408 c-3 -723 -3 -723 -25 -771 -31 -66 -104 -140 -166 -168 l-52 -24 -982 -3 -983 -2 0 -325 c0 -307 1 -327 22 -382 27 -74 97 -144 173 -172 55 -21 64 -21 1365 -21 l1309 0 58 22 c75 28 144 97 172 174 21 55 21 61 19 1112 l-3 1057 -23 43 c-35 66 -88 119 -150 149 l-57 28 -337 3 -337 3 -3 -723z"/>
</g>


</svg>