<svg version="1.0" xmlns="http://www.w3.org/2000/svg" width="512" height="512" viewBox="0 0 5120 5120"><path d="M643 4749c-43-12-91-62-98-102-3-18-4-696-3-1507l3-1475 27-50c43-81 106-132 198-159 44-13 110-16 372-16h318v-325c0-307 1-327 22-382 27-74 97-144 173-172 55-21 64-21 1365-21h1309l58 22c75 28 144 97 172 174 21 55 21 61 19 1112l-3 1057-23 43c-35 66-88 119-150 149l-57 28-342 3-342 3-3 347c-3 340-3 348-26 390-35 66-88 119-150 149l-57 28-980 3-980 2-345 344c-290 289-351 346-385 355-46 12-49 12-92 0z" fill="#00832d"/><path d="M643 4749c-43-12-91-62-98-102-3-18-4-696-3-1507l3-1475 27-50c43-81 106-132 198-159 44-13 110-16 367-16h312l3 723 3 722 27 57c35 75 104 141 174 167 54 21 70 21 1030 21h975l-3 348c-3 340-3 348-26 390-35 66-88 119-150 149l-57 28-980 3-980 2-345 344c-290 289-351 346-385 355-46 12-49 12-92 0z" fill="#00ac47"/><path d="M3668 2408c-3-723-3-723-25-771-31-66-104-140-166-168l-52-24-982-3-983-2v-325c0-307 1-327 22-382 27-74 97-144 173-172 55-21 64-21 1365-21h1309l58 22c75 28 144 97 172 174 21 55 21 61 19 1112l-3 1057-23 43c-35 66-88 119-150 149l-57 28-337 3-337 3-3-723z" fill="#5bb974"/></svg>
